<svg id="レイヤー_1" data-name="レイヤー 1" xmlns="http://www.w3.org/2000/svg" viewBox="0 0 60 60"><defs><style>.cls-1{fill:#165a85;}</style></defs><path class="cls-1" d="M28.19,10.33,11.66,24.42a1.75,1.75,0,0,0-.29.32H5.5A1.54,1.54,0,0,0,4,26.27v7.46A1.54,1.54,0,0,0,5.5,35.26h5.87a1.75,1.75,0,0,0,.29.32L28.19,49.67a1.92,1.92,0,0,0,3.17-1.46V11.79A1.92,1.92,0,0,0,28.19,10.33Z"/><path class="cls-1" d="M56,30a24.64,24.64,0,0,0-8.67-18.77,1.93,1.93,0,0,0-2.42-.1h0a1.92,1.92,0,0,0-.06,3,20.87,20.87,0,0,1,0,31.68,1.92,1.92,0,0,0,.06,3h0a1.93,1.93,0,0,0,2.42-.1A24.64,24.64,0,0,0,56,30Z"/><path class="cls-1" d="M44.35,30a13,13,0,0,1-5.77,10.82,2,2,0,0,0,0,3.32h0a2.07,2.07,0,0,0,2.41,0,17.14,17.14,0,0,0,0-28.36,2.07,2.07,0,0,0-2.41,0h0a2,2,0,0,0,0,3.32A13,13,0,0,1,44.35,30Z"/></svg>